<svg width="24" height="20" viewBox="0 0 24 20" fill="none" xmlns="http://www.w3.org/2000/svg">
<path d="M11.4 6.31579L14.7368 9.64211C14.7368 9.58947 14.7368 9.52632 14.7368 9.47368C14.7368 8.63616 14.4041 7.83294 13.8119 7.24072C13.2197 6.6485 12.4165 6.31579 11.5789 6.31579C11.5158 6.31579 11.4632 6.31579 11.4 6.31579ZM6.87368 7.1579L8.50526 8.78947C8.45263 9.01053 8.42105 9.23158 8.42105 9.47368C8.42105 10.3112 8.75376 11.1144 9.34598 11.7067C9.9382 12.2989 10.7414 12.6316 11.5789 12.6316C11.8105 12.6316 12.0421 12.6 12.2632 12.5474L13.8947 14.1789C13.1895 14.5263 12.4105 14.7368 11.5789 14.7368C10.1831 14.7368 8.84437 14.1823 7.85733 13.1953C6.8703 12.2083 6.31579 10.8696 6.31579 9.47368C6.31579 8.64211 6.52632 7.86316 6.87368 7.1579ZM1.05263 1.33684L3.45263 3.73684L3.92632 4.21053C2.18947 5.57895 0.821053 7.36842 0 9.47368C1.82105 14.0947 6.31579 17.3684 11.5789 17.3684C13.2105 17.3684 14.7684 17.0526 16.1895 16.4842L16.6421 16.9263L19.7158 20L21.0526 18.6632L2.38947 0L1.05263 1.33684ZM11.5789 4.21053C12.9748 4.21053 14.3135 4.76504 15.3006 5.75207C16.2876 6.7391 16.8421 8.07781 16.8421 9.47368C16.8421 10.1474 16.7053 10.8 16.4632 11.3895L19.5474 14.4737C21.1263 13.1579 22.3895 11.4316 23.1579 9.47368C21.3368 4.85263 16.8421 1.57895 11.5789 1.57895C10.1053 1.57895 8.69474 1.84211 7.36842 2.31579L9.65263 4.57895C10.2526 4.34737 10.8947 4.21053 11.5789 4.21053Z" fill="#FF7456"/>
</svg>
