<svg width="41" height="40" viewBox="0 0 41 40" fill="none" xmlns="http://www.w3.org/2000/svg">
<path d="M39.7263 38.0841L38.1232 39.6872C37.8886 39.8957 37.6149 40 37.3021 40C36.9893 40 36.7286 39.8957 36.52 39.6872L30.6158 33.783C29.2343 34.5911 27.7876 34.9951 26.2757 34.9951C23.8514 34.9951 21.7856 34.1414 20.0782 32.434C18.3708 30.7266 17.5171 28.6608 17.5171 26.2366C17.5171 24.5422 17.9733 22.9847 18.8856 21.564C19.798 20.1434 21.0101 19.0811 22.522 18.3773V15.0147H21.2708C20.9319 15.0147 20.6386 14.8908 20.391 14.6432C20.1434 14.3956 20.0196 14.1023 20.0196 13.7634C20.0196 13.4246 20.1434 13.1313 20.391 12.8837C20.6386 12.636 20.9319 12.5122 21.2708 12.5122H23.7732C24.1121 12.5122 24.4053 12.636 24.653 12.8837C24.9006 13.1313 25.0244 13.4246 25.0244 13.7634V17.6344C25.624 17.5562 26.0411 17.5171 26.2757 17.5171C28.6478 17.5171 30.694 18.3513 32.4145 20.0196H32.5318V15.0147H31.2806C30.9417 15.0147 30.6484 14.8908 30.4008 14.6432C30.1531 14.3956 30.0293 14.1023 30.0293 13.7634C30.0293 13.4246 30.1531 13.1313 30.4008 12.8837C30.6484 12.636 30.9417 12.5122 31.2806 12.5122H33.783C34.1219 12.5122 34.4151 12.636 34.6628 12.8837C34.9104 13.1313 35.0342 13.4246 35.0342 13.7634V20.0196H36.2854C36.6243 20.0196 36.9176 20.1434 37.1652 20.391C37.4128 20.6386 37.5367 20.9319 37.5367 21.2708C37.5367 21.6096 37.4128 21.9029 37.1652 22.1505C36.9176 22.3982 36.6243 22.522 36.2854 22.522H34.174C34.7475 23.7471 35.0342 24.9853 35.0342 26.2366C35.0342 27.7745 34.6302 29.2343 33.8221 30.6158L39.7263 36.4809C39.9348 36.7155 40.0391 36.9827 40.0391 37.2825C40.0391 37.5823 39.9348 37.8495 39.7263 38.0841ZM26.2757 20.0196C24.5552 20.0196 23.0824 20.6256 21.8573 21.8377C20.6321 23.0499 20.0196 24.5226 20.0196 26.2561C20.0196 27.9896 20.6321 29.4624 21.8573 30.6745C23.0824 31.8866 24.5552 32.4927 26.2757 32.4927C27.9961 32.4927 29.4689 31.8866 30.694 30.6745C31.9192 29.4624 32.5318 27.9896 32.5318 26.2561C32.5318 24.5226 31.9192 23.0499 30.694 21.8377C29.4689 20.6256 27.9961 20.0196 26.2757 20.0196ZM36.2854 10.0098H31.2806C30.9417 10.0098 30.6484 9.88596 30.4008 9.63832C30.1531 9.39068 30.0293 9.09743 30.0293 8.75855V1.25122C30.0293 0.912349 30.1531 0.619094 30.4008 0.371457C30.6484 0.123819 30.9417 0 31.2806 0H36.2854C36.6243 0 36.9176 0.123819 37.1652 0.371457C37.4128 0.619094 37.5367 0.912349 37.5367 1.25122V8.75855C37.5367 9.09743 37.4128 9.39068 37.1652 9.63832C36.9176 9.88596 36.6243 10.0098 36.2854 10.0098ZM35.0342 3.75367C35.0342 3.41479 34.9104 3.12154 34.6628 2.8739C34.4151 2.62626 34.1219 2.50244 33.783 2.50244C33.4441 2.50244 33.1509 2.62626 32.9032 2.8739C32.6556 3.12154 32.5318 3.41479 32.5318 3.75367V6.25611C32.5318 6.59498 32.6556 6.88824 32.9032 7.13587C33.1509 7.38351 33.4441 7.50733 33.783 7.50733C34.1219 7.50733 34.4151 7.38351 34.6628 7.13587C34.9104 6.88824 35.0342 6.59498 35.0342 6.25611V3.75367ZM26.2757 10.0098H21.2708C20.9319 10.0098 20.6386 9.88596 20.391 9.63832C20.1434 9.39068 20.0196 9.09743 20.0196 8.75855C20.0196 8.41968 20.1434 8.12643 20.391 7.87879C20.6386 7.63115 20.9319 7.50733 21.2708 7.50733H22.522V2.50244H21.2708C20.9319 2.50244 20.6386 2.37862 20.391 2.13099C20.1434 1.88335 20.0196 1.59009 20.0196 1.25122C20.0196 0.912349 20.1434 0.619094 20.391 0.371457C20.6386 0.123819 20.9319 0 21.2708 0H23.7732C24.1121 0 24.4053 0.123819 24.653 0.371457C24.9006 0.619094 25.0244 0.912349 25.0244 1.25122V7.50733H26.2757C26.6145 7.50733 26.9078 7.63115 27.1554 7.87879C27.4031 8.12643 27.5269 8.41968 27.5269 8.75855C27.5269 9.09743 27.4031 9.39068 27.1554 9.63832C26.9078 9.88596 26.6145 10.0098 26.2757 10.0098ZM16.2659 22.522H11.261C10.9221 22.522 10.6289 22.3982 10.3812 22.1505C10.1336 21.9029 10.0098 21.6096 10.0098 21.2708V13.7634C10.0098 13.4246 10.1336 13.1313 10.3812 12.8837C10.6289 12.636 10.9221 12.5122 11.261 12.5122H16.2659C16.6048 12.5122 16.898 12.636 17.1457 12.8837C17.3933 13.1313 17.5171 13.4246 17.5171 13.7634V21.2708C17.5171 21.6096 17.3933 21.9029 17.1457 22.1505C16.898 22.3982 16.6048 22.522 16.2659 22.522ZM15.0147 16.2659C15.0147 15.927 14.8908 15.6338 14.6432 15.3861C14.3956 15.1385 14.1023 15.0147 13.7634 15.0147C13.4246 15.0147 13.1313 15.1385 12.8837 15.3861C12.636 15.6338 12.5122 15.927 12.5122 16.2659V18.7683C12.5122 19.1072 12.636 19.4005 12.8837 19.6481C13.1313 19.8957 13.4246 20.0196 13.7634 20.0196C14.1023 20.0196 14.3956 19.8957 14.6432 19.6481C14.8908 19.4005 15.0147 19.1072 15.0147 18.7683V16.2659ZM16.2659 10.0098H11.261C10.9221 10.0098 10.6289 9.88596 10.3812 9.63832C10.1336 9.39068 10.0098 9.09743 10.0098 8.75855C10.0098 8.41968 10.1336 8.12643 10.3812 7.87879C10.6289 7.63115 10.9221 7.50733 11.261 7.50733H12.5122V2.50244H11.261C10.9221 2.50244 10.6289 2.37862 10.3812 2.13099C10.1336 1.88335 10.0098 1.59009 10.0098 1.25122C10.0098 0.912349 10.1336 0.619094 10.3812 0.371457C10.6289 0.123819 10.9221 0 11.261 0H13.7634C14.1023 0 14.3956 0.123819 14.6432 0.371457C14.8908 0.619094 15.0147 0.912349 15.0147 1.25122V7.50733H16.2659C16.6048 7.50733 16.898 7.63115 17.1457 7.87879C17.3933 8.12643 17.5171 8.41968 17.5171 8.75855C17.5171 9.09743 17.3933 9.39068 17.1457 9.63832C16.898 9.88596 16.6048 10.0098 16.2659 10.0098ZM6.25611 35.0342H1.25122C0.912349 35.0342 0.619094 34.9104 0.371457 34.6628C0.123819 34.4151 0 34.1219 0 33.783V26.2757C0 25.9368 0.123819 25.6435 0.371457 25.3959C0.619094 25.1483 0.912349 25.0244 1.25122 25.0244H6.25611C6.59498 25.0244 6.88824 25.1483 7.13588 25.3959C7.38351 25.6435 7.50733 25.9368 7.50733 26.2757V33.783C7.50733 34.1219 7.38351 34.4151 7.13588 34.6628C6.88824 34.9104 6.59498 35.0342 6.25611 35.0342ZM5.00489 28.7781C5.00489 28.4392 4.88107 28.146 4.63343 27.8983C4.38579 27.6507 4.09254 27.5269 3.75367 27.5269C3.41479 27.5269 3.12154 27.6507 2.8739 27.8983C2.62626 28.146 2.50244 28.4392 2.50244 28.7781V31.2805C2.50244 31.6194 2.62626 31.9127 2.8739 32.1603C3.12154 32.408 3.41479 32.5318 3.75367 32.5318C4.09254 32.5318 4.38579 32.408 4.63343 32.1603C4.88107 31.9127 5.00489 31.6194 5.00489 31.2805V28.7781ZM6.25611 22.522H1.25122C0.912349 22.522 0.619094 22.3982 0.371457 22.1505C0.123819 21.9029 0 21.6096 0 21.2708C0 20.9319 0.123819 20.6386 0.371457 20.391C0.619094 20.1434 0.912349 20.0196 1.25122 20.0196H2.50244V15.0147H1.25122C0.912349 15.0147 0.619094 14.8908 0.371457 14.6432C0.123819 14.3956 0 14.1023 0 13.7634C0 13.4246 0.123819 13.1313 0.371457 12.8837C0.619094 12.636 0.912349 12.5122 1.25122 12.5122H3.75367C4.09254 12.5122 4.38579 12.636 4.63343 12.8837C4.88107 13.1313 5.00489 13.4246 5.00489 13.7634V20.0196H6.25611C6.59498 20.0196 6.88824 20.1434 7.13588 20.391C7.38351 20.6386 7.50733 20.9319 7.50733 21.2708C7.50733 21.6096 7.38351 21.9029 7.13588 22.1505C6.88824 22.3982 6.59498 22.522 6.25611 22.522ZM6.25611 10.0098H1.25122C0.912349 10.0098 0.619094 9.88596 0.371457 9.63832C0.123819 9.39068 0 9.09743 0 8.75855V1.25122C0 0.912349 0.123819 0.619094 0.371457 0.371457C0.619094 0.123819 0.912349 0 1.25122 0H6.25611C6.59498 0 6.88824 0.123819 7.13588 0.371457C7.38351 0.619094 7.50733 0.912349 7.50733 1.25122V8.75855C7.50733 9.09743 7.38351 9.39068 7.13588 9.63832C6.88824 9.88596 6.59498 10.0098 6.25611 10.0098ZM5.00489 3.75367C5.00489 3.41479 4.88107 3.12154 4.63343 2.8739C4.38579 2.62626 4.09254 2.50244 3.75367 2.50244C3.41479 2.50244 3.12154 2.62626 2.8739 2.8739C2.62626 3.12154 2.50244 3.41479 2.50244 3.75367V6.25611C2.50244 6.59498 2.62626 6.88824 2.8739 7.13587C3.12154 7.38351 3.41479 7.50733 3.75367 7.50733C4.09254 7.50733 4.38579 7.38351 4.63343 7.13587C4.88107 6.88824 5.00489 6.59498 5.00489 6.25611V3.75367ZM11.261 27.5269C10.9221 27.5269 10.6289 27.4031 10.3812 27.1554C10.1336 26.9078 10.0098 26.6145 10.0098 26.2757C10.0098 25.9368 10.1336 25.6435 10.3812 25.3959C10.6289 25.1483 10.9221 25.0244 11.261 25.0244H13.7634C14.1023 25.0244 14.3956 25.1483 14.6432 25.3959C14.8908 25.6435 15.0147 25.9368 15.0147 26.2757V32.5318H16.2659C16.6048 32.5318 16.898 32.6556 17.1457 32.9032C17.3933 33.1509 17.5171 33.4441 17.5171 33.783C17.5171 34.1219 17.3933 34.4151 17.1457 34.6628C16.898 34.9104 16.6048 35.0342 16.2659 35.0342H11.261C10.9221 35.0342 10.6289 34.9104 10.3812 34.6628C10.1336 34.4151 10.0098 34.1219 10.0098 33.783C10.0098 33.4441 10.1336 33.1509 10.3812 32.9032C10.6289 32.6556 10.9221 32.5318 11.261 32.5318H12.5122V27.5269H11.261Z" fill="#FF7456"/>
</svg>
