<svg width="26" height="25" viewBox="0 0 30 29" fill="none" xmlns="http://www.w3.org/2000/svg">
<path d="M13.393 14.1082C13.393 14.5091 13.5624 14.8935 13.8638 15.177C14.1652 15.4605 14.5739 15.6197 15.0002 15.6197C15.4264 15.6197 15.8352 15.4605 16.1366 15.177C16.438 14.8935 16.6073 14.5091 16.6073 14.1082C16.6073 13.7073 16.438 13.3228 16.1366 13.0393C15.8352 12.7558 15.4264 12.5966 15.0002 12.5966C14.5739 12.5966 14.1652 12.7558 13.8638 13.0393C13.5624 13.3228 13.393 13.7073 13.393 14.1082ZM20.0895 14.1082C20.0895 14.5091 20.2588 14.8935 20.5602 15.177C20.8616 15.4605 21.2704 15.6197 21.6966 15.6197C22.1229 15.6197 22.5316 15.4605 22.833 15.177C23.1344 14.8935 23.3038 14.5091 23.3038 14.1082C23.3038 13.7073 23.1344 13.3228 22.833 13.0393C22.5316 12.7558 22.1229 12.5966 21.6966 12.5966C21.2704 12.5966 20.8616 12.7558 20.5602 13.0393C20.2588 13.3228 20.0895 13.7073 20.0895 14.1082ZM6.69662 14.1082C6.69662 14.5091 6.86594 14.8935 7.16734 15.177C7.46873 15.4605 7.87752 15.6197 8.30376 15.6197C8.73 15.6197 9.13878 15.4605 9.44018 15.177C9.74158 14.8935 9.9109 14.5091 9.9109 14.1082C9.9109 13.7073 9.74158 13.3228 9.44018 13.0393C9.13878 12.7558 8.73 12.5966 8.30376 12.5966C7.87752 12.5966 7.46873 12.7558 7.16734 13.0393C6.86594 13.3228 6.69662 13.7073 6.69662 14.1082ZM28.835 8.64124C28.0783 6.95016 26.9935 5.43227 25.6107 4.12852C24.2375 2.83233 22.6074 1.80201 20.8127 1.0959C18.9712 0.36845 17.0158 0 15.0002 0H14.9332C12.9042 0.00944743 10.9388 0.387344 9.09059 1.13054C7.3112 1.84389 5.69638 2.87604 4.33613 4.16946C2.96671 5.47006 1.89193 6.98165 1.14863 8.66644C0.378538 10.4111 -0.00985469 12.2659 0.000189953 14.1743C0.0115513 16.3613 0.561658 18.516 1.60733 20.4694V25.2561C1.60733 25.6403 1.7696 26.0088 2.05844 26.2804C2.34728 26.5521 2.73903 26.7047 3.14751 26.7047H8.24014C10.317 27.6882 12.608 28.2056 14.9332 28.2163H15.0035C17.0091 28.2163 18.9544 27.851 20.7859 27.1362C22.5716 26.4385 24.1956 25.4202 25.5671 24.1382C26.95 22.8502 28.0381 21.3449 28.7982 19.6664C29.5883 17.9281 29.9901 16.0795 30.0002 14.1711C30.0102 12.2533 29.6151 10.3922 28.835 8.64124ZM23.7759 22.4345C21.4288 24.62 18.3149 25.823 15.0002 25.823H14.9433C12.9243 25.8135 10.9187 25.3411 9.14751 24.4531L8.86626 24.3114H4.15197V19.8774L4.0013 19.6129C3.05711 17.947 2.55488 16.0606 2.54483 14.1617C2.53144 11.022 3.80711 8.0744 6.14751 5.85425C8.48456 3.63411 11.6084 2.40594 14.9466 2.39335H15.0035C16.6776 2.39335 18.3015 2.69881 19.8317 3.30345C21.325 3.89234 22.6642 4.73946 23.816 5.82276C24.9645 6.90292 25.8685 8.16572 26.4946 9.57024C27.1442 11.0251 27.4689 12.5682 27.4622 14.1617C27.4421 17.2982 26.133 20.2364 23.7759 22.4345Z" fill="#003659"/>
</svg>
